<?xml version="1.0" encoding="UTF-8"?>
<svg id="Layer_1" xmlns="http://www.w3.org/2000/svg" version="1.1" viewBox="0 0 1024 449.9">
  <!-- Generator: Adobe Illustrator 29.4.0, SVG Export Plug-In . SVG Version: 2.1.0 Build 152)  -->
  <defs>
    <style>
      .st0 {
        fill: #231f20;
      }

      .st1 {
        fill: #fff;
      }

      .st2 {
        fill: #00b8b0;
      }
    </style>
  </defs>
  <rect class="st0" width="1024" height="449.9"/>
  <g>
    <g>
      <path class="st2" d="M243.7,141.8c5.2-.9,10.6-.3,15.9-.5,8.9-.4,17.7,1.2,26.2,3.7,30.9,7.9,56,32.7,67,62.3,2.7,7,4.1,14.5,5.4,21.9,2.8,22.4-2.7,45.6-14.4,64.8-10.4,16.4-25,30.4-42.5,38.9-9.8,5.2-20.7,7.5-31.5,9.3-8.2.6-16.4.7-24.6-.1-32.2-4.3-62-24.6-77-53.6-5.6-9.6-8.3-20.5-10.7-31.2-.7-3.2-.3-6.4-.7-9.6-.8-6-.5-12.1.2-18.1,2.5-20.2,11-39.8,24.6-55,16-17.8,38.5-29.3,62.2-32.7ZM253.2,154.8c-18,.4-35.7,7.4-49.8,18.5-18.6,14.1-30.8,36.3-32.8,59.6.1,8.7-.7,17.5,1.5,26,5.5,27.1,24.8,50.7,49.9,62,25,11.8,55.7,10,79.5-4.1,14.7-8.9,26.9-22,34.6-37.4,4.3-9.7,7.9-20,8.5-30.7,1.6-15.1-1.4-30.4-7.8-44.1-8.8-18.9-24.7-34.3-43.8-42.7-8.2-3.4-16.9-5.5-25.7-6.8-4.7.3-9.4-.9-14.1-.3Z"/>
      <path class="st2" d="M277.9,190.6c5.3-1.7,11.7,1.7,12.4,7.3,0,27.9,0,55.8,0,83.8-.3,6-7.6,10.1-13,7.8-3.6-1.2-6.5-4.8-6.2-8.7,0-27.1,0-54.2,0-81.3-.5-4.2,2.9-7.8,6.7-8.9Z"/>
      <path class="st2" d="M244.5,221.3c5.7-2.3,13.1,1.8,13.3,8.2,0,17.7,0,35.3,0,53-.2,6.4-8.1,10.7-13.7,7.8-3.4-1.4-6.1-4.9-6-8.6,0-17.4,0-34.8,0-52.2.4-3.6,2.8-7,6.3-8.2Z"/>
      <path class="st2" d="M213.6,240.7c5.3-1.3,12.1,2.5,11.8,8.4,0,11.4,0,22.9,0,34.3,0,6.7-8.7,10.3-14.1,7.2-3.5-1.4-5.6-5.2-5.1-8.9.1-10.6,0-21.2,0-31.7-.2-4.4,3.3-8.2,7.4-9.3Z"/>
    </g>
    <g>
      <path class="st1" d="M443.6,187.6c6.2,0,12.4,0,18.6,0,0,35.7-.1,71.4,0,107.2-6.2,0-12.4,0-18.6,0,0-2.2,0-4.5,0-6.7-3.9,5.2-10.4,7.4-16.5,8.8-8.6,1.2-18,.1-25-5.3-5.5-4.1-9.6-9.8-12.3-16-2.4-4.7-2.6-10.1-3.5-15.3-.2-2.6,0-5.3.6-7.8,1.3-9.6,5.7-19,13-25.5,5.8-5.7,14.1-8.2,22.1-8.5,3.1.9,6.4.6,9.5,1.7,4.6,1.6,8.9,4.4,12,8.2,0-13.6,0-27.2,0-40.8ZM421.6,235.8c-5.5,1.4-10.2,5.3-12.9,10.3-3.1,7-3.6,15.2-.6,22.3,1.7,5.1,5.8,9.3,10.7,11.5,3.3,1.8,7.2.9,10.8.9,5.4-1.5,10.6-5.2,12.6-10.7,2.7-6.9,2.9-14.8.6-21.8-2.8-8.5-12.3-14.6-21.2-12.5Z"/>
      <path class="st1" d="M474.9,187.6c6.2,0,12.4,0,18.6,0-.2,13.5.2,27.1-.2,40.6,4.2-4.6,10-7.9,16.2-8.9,2.8.1,5.4-1.4,8.2-.7,3.3.9,6.9.6,10.1,2,12.3,4.6,20.2,17,22.5,29.6,0,4.4,1.9,8.8.5,13.1-1.3,12.7-8.5,25.2-20.2,31.1-12.2,5.3-28.5,4.1-37.4-6.6.1,2.4.2,4.7.3,7.1-6.2,0-12.4,0-18.6,0,0-35.7,0-71.4,0-107.2ZM508.8,235.7c-6,.3-11.1,4.4-13.5,9.7-3.7,8.6-3.4,18.8,1.1,27.1,2.3,4.3,6.7,7.2,11.4,8.4,4.5,0,9.4.7,13.4-1.9,6.5-3.4,9.6-10.8,10.4-17.8.9-8.9-2.7-18.7-10.6-23.5-3.8-1.5-7.9-2.9-12.1-1.9Z"/>
      <path class="st1" d="M778.9,187.6c6.3,0,12.5,0,18.8,0,0,35.7,0,71.4,0,107.2-6.3,0-12.5-.1-18.8,0,0-35.7,0-71.5,0-107.2Z"/>
      <path class="st1" d="M545.1,190.8c26.4,0,52.7,0,79.1,0,0,5.8,0,11.6,0,17.4-10,0-20,0-30.1,0,0,28.9,0,57.8,0,86.6-6.5,0-13.1,0-19.6,0,0-28.9,0-57.7,0-86.6-9.8,0-19.6,0-29.3,0,0-5.8,0-11.6,0-17.3Z"/>
      <path class="st1" d="M646.7,218.8c3.4-1.1,6.8.6,10.3.8,17.5,3.3,30.2,20.7,30.4,38.1.9,17-11.5,33.6-28,37.9-16.9,5.7-36.5-4-43.9-19.9-2.4-4.1-3.7-8.9-3.6-13.6.1-4.7-.4-9.4.8-14,3.7-15.6,17.8-28.3,34-29.2ZM645.7,235.8c-9.7,2.3-15.2,12.6-14.9,22-.3,3.5.4,7,1.8,10.2,2.2,6.8,8.7,12.8,16.2,12.3,4.9.4,9.4-2.3,13-5.3,4.5-4.8,6.6-11.6,6.3-18.1.1-7.5-3.5-15.5-10.3-19.2-3.5-2.3-8-2.6-12-1.9Z"/>
      <path class="st1" d="M729.6,218.7c3.2-.9,6.4.6,9.6.9,16.3,2.7,28.4,18,30.3,34,0,3.7.1,7.4,0,11-1,6.5-3.6,12.8-7.8,17.9-5.6,7.8-14.7,12.5-23.9,14.5-5.2.3-10.7,1-15.7-1-6.9-1.4-13-5.4-17.8-10.5-5.8-5.7-9-13.6-10-21.6,0-3.7,0-7.5,0-11.2,1.1-10,6-19.9,14.1-26,4.4-3.5,9.7-5.8,15.2-7.1,2-.3,4.1-.2,6.1-.8ZM727.9,235.8c-8.4,1.8-13.4,9.8-14.8,17.7,0,2.8-.1,5.6,0,8.4,1.5,5.3,3.2,11,7.6,14.6,6.7,6,17.8,4.5,23.8-1.8,8.6-9.5,8.3-25.7-1-34.6-4.2-3.8-10.1-5.5-15.7-4.3Z"/>
      <path class="st1" d="M822,221.3c3.9-2.1,8.4-1.9,12.6-2.8,2.9-.5,5.6.7,8.4.8,4.9.4,9.4,2.7,13.5,5.3,4.1,3.4,6.9,8.2,8.7,13.2-5.2,1.4-10.3,2.9-15.4,4.5-1.8-4-5.1-7.6-9.7-8.2-4.5-.4-9.9-1.4-13.5,2.1-2.7,2-3.6,6.6-.6,8.8,3.1,2.6,7.5,2.2,11.3,3.2,8.4,1.7,17.9,1.7,24.4,8.1,4.3,3.6,5.4,9.3,6.1,14.5,0,5.5-1.2,11.2-4.9,15.4-5.9,7.6-15.8,10.5-25,10.7-8.2.4-16.5-1.9-23.3-6.4-4.7-3.2-7.4-8.4-9.5-13.5,5.6-1.8,11.3-3.5,17.1-4.8,1.6,3,3,6.4,6.3,7.9,4,2.8,8.9,1.7,13.5,1.8,3.2-1.3,7.3-3,7.9-6.9.7-2.7.1-6.6-2.9-7.4-7.8-2-15.8-2.7-23.6-4.4-4.8-1-9.5-3.2-12.4-7.3-3.6-5.1-4.9-11.8-3.3-17.8,1.4-7.5,7.1-13.8,14.2-16.6Z"/>
    </g>
  </g>
</svg>